HIERARCHY
ROOT Hips
{
	OFFSET -14.64140 90.27770 -84.91600
	CHANNELS 6 Xposition Yposition Zposition Zrotation Xrotation Yrotation
	JOINT Spine
	{
		OFFSET 0.00000 13.20850 -1.60436
		CHANNELS 3 Zrotation Xrotation Yrotation
		JOINT Spine1
		{
			OFFSET 0.00000 8.61716 0.00000
			CHANNELS 3 Zrotation Xrotation Yrotation
			JOINT Spine2
			{
				OFFSET 0.00000 8.61717 0.00000
				CHANNELS 3 Zrotation Xrotation Yrotation
				JOINT Spine3
				{
					OFFSET 0.00000 8.61717 0.00000
					CHANNELS 3 Zrotation Xrotation Yrotation
					JOINT Neck
					{
						OFFSET 0.00000 11.07920 1.10792
						CHANNELS 3 Zrotation Xrotation Yrotation
						JOINT Neck1
						{
							OFFSET 0.00000 7.08032 0.00000
							CHANNELS 3 Zrotation Xrotation Yrotation
							JOINT Head
							{
								OFFSET 0.00000 7.08031 0.00000
								CHANNELS 3 Zrotation Xrotation Yrotation
								End site
								{
									OFFSET 0.00000 0.00000 0.00000
								}
							}
						}
					}
					JOINT RightShoulder
					{
						OFFSET -0.01000 7.91373 5.19711
						CHANNELS 3 Zrotation Xrotation Yrotation
						JOINT RightArm
						{
							OFFSET -18.41580 0.00000 0.00000
							CHANNELS 3 Zrotation Xrotation Yrotation
							JOINT RightForeArm
							{
								OFFSET -29.11090 0.00000 0.00000
								CHANNELS 3 Zrotation Xrotation Yrotation
								JOINT RightHand
								{
									OFFSET -24.65040 0.00000 0.00000
									CHANNELS 3 Zrotation Xrotation Yrotation
									JOINT RightHandThumb1
									{
										OFFSET -5.35114 -0.85590 3.97906
										CHANNELS 3 Zrotation Xrotation Yrotation
										JOINT RightHandThumb2
										{
											OFFSET -4.52789 0.00000 0.00000
											CHANNELS 3 Zrotation Xrotation Yrotation
											JOINT RightHandThumb3
											{
												OFFSET -2.46976 0.00000 0.00000
												CHANNELS 3 Zrotation Xrotation Yrotation
												End site
												{
													OFFSET 0.00000 0.00000 0.00000
												}
											}
										}
									}
									JOINT RightHandIndex1
									{
										OFFSET -14.26970 0.00000 2.88139
										CHANNELS 3 Zrotation Xrotation Yrotation
										JOINT RightHandIndex2
										{
											OFFSET -5.48836 0.00000 0.00000
											CHANNELS 3 Zrotation Xrotation Yrotation
											JOINT RightHandIndex3
											{
												OFFSET -3.01859 0.00000 0.00000
												CHANNELS 3 Zrotation Xrotation Yrotation
												End site
												{
													OFFSET 0.00000 0.00000 0.00000
												}
											}
										}
									}
									JOINT RightHandMiddle1
									{
										OFFSET -14.26970 0.00000 -0.09147
										CHANNELS 3 Zrotation Xrotation Yrotation
										JOINT RightHandMiddle2
										{
											OFFSET -6.17441 0.00000 0.00000
											CHANNELS 3 Zrotation Xrotation Yrotation
											JOINT RightHandMiddle3
											{
												OFFSET -3.56743 0.00000 0.00000
												CHANNELS 3 Zrotation Xrotation Yrotation
												End site
												{
													OFFSET 0.00000 0.00000 0.00000
												}
											}
										}
									}
									JOINT RightHandRing1
									{
										OFFSET -12.69180 0.00000 -3.06433
										CHANNELS 3 Zrotation Xrotation Yrotation
										JOINT RightHandRing2
										{
											OFFSET -5.62556 0.00000 0.00000
											CHANNELS 3 Zrotation Xrotation Yrotation
											JOINT RightHandRing3
											{
												OFFSET -3.56744 0.00000 0.00000
												CHANNELS 3 Zrotation Xrotation Yrotation
												End site
												{
													OFFSET 0.00000 0.00000 0.00000
												}
											}
										}
									}
									JOINT RightHandPinky1
									{
										OFFSET -11.11390 0.00000 -6.03719
										CHANNELS 3 Zrotation Xrotation Yrotation
										JOINT RightHandPinky2
										{
											OFFSET -4.52789 0.00000 0.00000
											CHANNELS 3 Zrotation Xrotation Yrotation
											JOINT RightHandPinky3
											{
												OFFSET -2.46976 0.00000 0.00000
												CHANNELS 3 Zrotation Xrotation Yrotation
												End site
												{
													OFFSET 0.00000 0.00000 0.00000
												}
											}
										}
									}
								}
							}
						}
					}
					JOINT LeftShoulder
					{
						OFFSET 0.01000 7.91373 5.19711
						CHANNELS 3 Zrotation Xrotation Yrotation
						JOINT LeftArm
						{
							OFFSET 18.41580 0.00000 0.00000
							CHANNELS 3 Zrotation Xrotation Yrotation
							JOINT LeftForeArm
							{
								OFFSET 29.11090 0.00000 0.00000
								CHANNELS 3 Zrotation Xrotation Yrotation
								JOINT LeftHand
								{
									OFFSET 24.65040 0.00000 0.00000
									CHANNELS 3 Zrotation Xrotation Yrotation
									JOINT LeftHandThumb1
									{
										OFFSET 5.35114 -0.85590 3.97906
										CHANNELS 3 Zrotation Xrotation Yrotation
										JOINT LeftHandThumb2
										{
											OFFSET 4.52789 0.00000 0.00000
											CHANNELS 3 Zrotation Xrotation Yrotation
											JOINT LeftHandThumb3
											{
												OFFSET 2.46977 0.00000 0.00000
												CHANNELS 3 Zrotation Xrotation Yrotation
												End site
												{
													OFFSET 0.00000 0.00000 0.00000
												}
											}
										}
									}
									JOINT LeftHandIndex1
									{
										OFFSET 14.26970 0.00000 2.88139
										CHANNELS 3 Zrotation Xrotation Yrotation
										JOINT LeftHandIndex2
										{
											OFFSET 5.48836 0.00000 0.00000
											CHANNELS 3 Zrotation Xrotation Yrotation
											JOINT LeftHandIndex3
											{
												OFFSET 3.01859 0.00000 0.00000
												CHANNELS 3 Zrotation Xrotation Yrotation
												End site
												{
													OFFSET 0.00000 0.00000 0.00000
												}
											}
										}
									}
									JOINT LeftHandMiddle1
									{
										OFFSET 14.26970 0.00000 -0.09147
										CHANNELS 3 Zrotation Xrotation Yrotation
										JOINT LeftHandMiddle2
										{
											OFFSET 6.17440 0.00000 0.00000
											CHANNELS 3 Zrotation Xrotation Yrotation
											JOINT LeftHandMiddle3
											{
												OFFSET 3.56744 0.00000 0.00000
												CHANNELS 3 Zrotation Xrotation Yrotation
												End site
												{
													OFFSET 0.00000 0.00000 0.00000
												}
											}
										}
									}
									JOINT LeftHandRing1
									{
										OFFSET 12.69180 0.00000 -3.06433
										CHANNELS 3 Zrotation Xrotation Yrotation
										JOINT LeftHandRing2
										{
											OFFSET 5.62556 0.00000 0.00000
											CHANNELS 3 Zrotation Xrotation Yrotation
											JOINT LeftHandRing3
											{
												OFFSET 3.56744 0.00000 0.00000
												CHANNELS 3 Zrotation Xrotation Yrotation
												End site
												{
													OFFSET 0.00000 0.00000 0.00000
												}
											}
										}
									}
									JOINT LeftHandPinky1
									{
										OFFSET 11.11390 0.00000 -6.03719
										CHANNELS 3 Zrotation Xrotation Yrotation
										JOINT LeftHandPinky2
										{
											OFFSET 4.52789 0.00000 0.00000
											CHANNELS 3 Zrotation Xrotation Yrotation
											JOINT LeftHandPinky3
											{
												OFFSET 2.46976 0.00000 0.00000
												CHANNELS 3 Zrotation Xrotation Yrotation
												End site
												{
													OFFSET 0.00000 0.00000 0.00000
												}
											}
										}
									}
								}
							}
						}
					}
					JOINT pCube4
					{
						OFFSET 0.00000 10.91090 1.10792
						CHANNELS 3 Zrotation Xrotation Yrotation
						End site
						{
							OFFSET 0.00000 0.00000 0.00000
						}
					}
				}
			}
		}
	}
	JOINT RightUpLeg
	{
		OFFSET -9.98441 0.00000 0.00000
		CHANNELS 3 Zrotation Xrotation Yrotation
		JOINT RightLeg
		{
			OFFSET 0.00000 -42.11790 0.00000
			CHANNELS 3 Zrotation Xrotation Yrotation
			JOINT RightFoot
			{
				OFFSET 0.00000 -45.00020 -0.00001
				CHANNELS 3 Zrotation Xrotation Yrotation
				JOINT RightForeFoot
				{
					OFFSET 0.00000 -3.74820 0.00000
					CHANNELS 3 Zrotation Xrotation Yrotation
					JOINT RightToeBase
					{
						OFFSET 0.00000 0.06325 14.43120
						CHANNELS 3 Zrotation Xrotation Yrotation
						End site
						{
							OFFSET 0.00000 0.00000 0.00000
						}
					}
				}
			}
		}
	}
	JOINT LeftUpLeg
	{
		OFFSET 9.98441 0.00000 0.00000
		CHANNELS 3 Zrotation Xrotation Yrotation
		JOINT LeftLeg
		{
			OFFSET 0.00000 -42.11800 0.00000
			CHANNELS 3 Zrotation Xrotation Yrotation
			JOINT LeftFoot
			{
				OFFSET 0.00000 -45.00070 0.00000
				CHANNELS 3 Zrotation Xrotation Yrotation
				JOINT LeftForeFoot
				{
					OFFSET 0.00000 -3.74824 0.00000
					CHANNELS 3 Zrotation Xrotation Yrotation
					JOINT LeftToeBase
					{
						OFFSET 0.00000 0.06325 14.43110
						CHANNELS 3 Zrotation Xrotation Yrotation
						End site
						{
							OFFSET 0.00000 0.00000 0.00000
						}
					}
				}
			}
		}
	}
}
MOTION
Frames: 4
Frame Time: 0.050000
0.013199305837534286 0.0032742780137076295 0.010043383539021842 0.019811233110632737 -0.000520716617977951 0.019977097201665926 3.2820137151827824 2.3444011228140855 -1.8596987669877174 -0.5531057766700554 3.6735135961470107 0.35537269503148256 -0.6820464313526868 -1.537216954851477 1.0690985250208707 -0.5729309431255116 -0.412087481898108 -0.30261620643358156 0.16884691190919218 13.508472962429655 -1.6415440649099513 0.39894875234788457 -0.010988955401444851 -4.219322163394383 0.9108784923804609 -15.875679990913827 -0.3621310584079874 -7.803023303354209 2.878422789474821 -16.493937502896852 76.17126841276685 15.321272238638127 10.558390074894477 1.4916029597210005 0.7864147452410454 89.56470987126622 21.22204614829727 -0.5618904097056998 -4.415597816867066 4.552279520486122 -0.09549881880060751 -1.587382320008864 0.003311702787389253 0.03446462092090919 -56.26558558610535 0.041333325964229985 0.03736713165070159 -56.26495160808683 -38.75677581442949 -0.013455974018493355 -0.020049621604214387 0.0030284860453973616 0.04730105839925675 -0.008102765558287529 0.014226150234905489 -0.04127852875884518 -0.019373733294270907 -36.74159762806023 -0.02312834801967916 -0.021251277323246588 0.04077834549742211 0.03186153959992709 -0.04123378510649001 0.0029860996630000154 -0.029310726444131165 0.020101701406684713 -19.73735674669497 0.0030202354160773276 -0.023950383819722424 0.011121264670783764 0.008928203539811283 -0.034579589089779005 0.0186469871542905 0.0036653185193978983 -0.0174345928560052 24.02716235214996 0.026571800150711502 -0.038823816254270366 28.872339532180508 0.008218506393725395 -0.031618901073902375 28.841827257863667 -0.004907506733236508 0.006372665079427574 8.616714149612179 2.1580736074032862 14.626030466583538 -74.54559625856648 24.66785172354224 -11.372461615428115 -16.599509422426646 3.291303904871299 -83.91613437106439 -23.354572022959797 -2.7556064001839875 1.6013684064536016 -0.5152383102805194 0.11587237286479456 -8.073964115865591 0.003798118025084447 0.012325399545517755 44.588923242705924 -0.014542463784944452 -0.033659248786263085 44.58778406748467 12.474251234613881 0.011522639891075293 -0.042682391052355155 -0.0310866551310735 0.008110376535204937 -0.026622298006719874 0.021809096275409553 -0.024112514611956334 -0.004880773152670242 11.139519304134884 -0.03284107302082088 0.02496371264173889 0.048636013118958335 -0.0001354024598900057 -0.014688355557227091 -0.029521791675705206 0.03757082665851505 0.04626513583466192 4.78438873295348 -0.014410693725987406 0.0013097636520167117 -0.012916552060342068 0.028970129484710474 0.006961225853641667 -0.039679705693928743 -0.03753991477862796 -0.047771292100926635 -5.55484065584262 0.008503510877066599 -0.02360715215451252 -6.6710843503325785 0.015339452433084912 -0.03569485621097903 -6.769066006414029 -0.03874111198111255 0.04185278924872375 -0.02943641845963395 -0.000927841504682917 -0.019520944253671513 8.058868618463912 3.47582674769967 -19.213185323883877 0.014800341497007765 10.414423385171736 0.046581975527773864 -5.641465139468819 -15.616521128689165 3.240610770787515 -0.010922669599499292 0.03261419750961819 -0.04526162311295621 -0.03827230812190176 4.7371462854440365 0.031513067531589584 12.45928283632665 -8.24830942918819 6.840712636993857 0.02734498550684822 46.361827691989866 0.019001891452421562 -4.295460062596648 -14.707813747230755 -3.815610241367708 0.014018416150818738 -0.021726592344257088 -0.02900643022602709 -0.005036079597727941 -10.76615184082557 0.026952473723062437 
0.022718149367944418 -0.03303572880961602 -0.01807529941323792 0.025251754561298568 0.024922266360003706 -0.04281056955585722 3.6710307267822793 2.4581406076662478 -1.9488999221420387 -0.5675726151449585 3.704576338356044 0.37314331964791064 -0.6051499929649596 -1.52039956752972 0.9742275462602988 -0.5156567722007818 -0.3704301052881344 -0.3008598723702719 0.13680913356885266 13.670531248726771 -1.5401753808756877 0.3471184827831851 0.09392009762975023 -3.8807526519089173 0.8681988267872486 -15.710866595519828 -0.3218554504816724 -8.353911051331885 2.9423266077089956 -16.823826761849713 76.75699333246068 17.01355042853026 9.586928021518705 -0.524330405531657 0.31006159358941465 87.76012756292981 21.099939116743492 -0.5307434114367866 -4.673150866067489 4.508264982198997 -0.09857758603939043 -1.5873626191607415 -0.03420854699992834 0.004894202472961844 -56.20021699017371 -0.0010951844183665687 -0.012887127908225455 -56.24900687891735 -38.785658628601 -0.023013993950192296 0.044852926950916805 0.03918131846321575 -0.012552189574446612 0.020764992990726976 -0.009729485882915037 0.003910233434821162 0.03796262404358505 -36.71538623737101 0.012319914790826558 0.02824300548383055 0.03281967514019092 0.020600579820750815 0.043831296527133495 0.01717464870946814 -0.0430926053674846 -0.027861524949283775 -19.744709049881536 0.039879829620420276 -0.00815215098394178 0.0161853345703141 -0.007339337776064543 0.0045917673135862196 0.007944238085037055 0.008601495290565368 0.04170740268053815 24.00719925893927 0.028657945296585826 0.011800193620782832 28.843727292767248 -0.048958001472003077 0.02350412164547426 28.91425014294734 0.026870933224804102 0.039167628093271845 9.188144219124164 2.266290116586986 14.724322933929036 -74.3442603888183 25.65112021000049 -11.712817096139657 -15.486443735115468 2.5988353327699847 -83.3552403375918 -23.253891176302417 -3.706085234263009 2.353653334997022 -0.4561784419287171 0.06714572743999823 -8.12879260088293 0.025315793690457517 0.013401655997195457 44.54203550740823 -0.022584083751585878 -0.013871971574809351 44.55465859662811 12.471161794146417 0.013866006998900065 -0.01360725891699497 0.022386120602515103 -0.0322609500346352 0.012383767265253956 0.016005040045089035 -0.03511422331893811 0.002910540962124436 11.115462988577061 -0.004000057791625027 -0.0025643428806268586 -0.011461572970557122 0.004829726901338449 -0.024047612850198904 -0.013514369641897546 0.02347924807597035 -0.0031931221993834738 4.793660714708744 0.025242794789045266 0.04152016312828673 -0.010953665959463533 0.010903882225947521 0.049129827211033 0.004548898534613444 0.024654166739562593 -0.004097156625334912 -5.565188364132685 -0.030833479267539668 -0.03554362416346396 -6.683074476421047 0.020592800670946213 -0.01884308265448037 -6.693123227236057 -0.0200660794844341 0.006852056992620568 0.014567329961977269 0.022330993543601158 0.007606353230556883 8.00155846117003 3.5216410628577686 -19.187142808729728 0.04863452747716222 10.369373861857511 0.019463474499854486 -5.640897528081043 -15.642779087813386 3.1867491804949775 0.013630896009805075 -0.04257037773312118 -0.009796295107576502 0.0036614835574553086 4.744322353489811 -0.027688528984976327 12.45804722028351 -8.210197457786743 6.8772180182865155 0.030381987164567227 46.424125474248974 0.04060197792260713 -4.344593571749128 -14.753254918483565 -3.7939086575357126 0.006565305065525794 0.02609980775472868 -0.016601203467354803 0.03329302724496988 -10.754174334398533 -0.002531712678179046 
-0.036064255831326573 -0.0006880133006776142 -0.0012059438209232006 0.026284051923160603 -0.021454465934669303 -0.037223484851621344 4.027953153298352 2.3682068162717242 -2.003061320146271 -0.5899578056001678 3.671754194256876 0.3163054534292227 -0.616399206466126 -1.560040652146317 0.9341902538670528 -0.512184991366333 -0.24035107488003127 -0.25391298406806057 0.06166311637390698 13.957687980751457 -1.3310170697345014 0.3688121311379628 0.27750562996529005 -3.2520298481376826 0.8311323345378165 -15.522658599459684 -0.31173477966821583 -8.67310378756852 3.0694258594936317 -16.95910289170038 77.27697448405378 18.783044654284666 8.93145197980505 -2.054336176398972 0.0718321708537848 86.59339946745081 21.08643684988392 -0.4924156736634899 -4.901801682740741 4.571879610192647 -0.09665381361369849 -1.5641301682229982 0.008928436726989127 -0.04683676833326903 -56.20115760776065 -0.04312341366067928 0.04806065348835031 -56.20567779194665 -38.731234540832695 0.005415217356245053 -0.034240804362466314 0.0340780646527055 0.030875479837643792 0.010692955407192785 0.0003926614917126671 -0.006652342630784489 0.0006224559842415166 -36.68088858472772 -0.03378756418797235 -0.047925920590707896 0.03429700736406686 -0.0034241533689123487 -0.04048390432240059 0.0018612963992374848 0.0038747014058067193 0.023811193018149754 -19.76749640979971 -0.026376502201171888 0.018191014479520408 -0.026334750602545393 -0.004287885281563891 -0.008174072337676976 -0.0009134988408557041 -0.010445368431289794 -0.02609352371331556 24.0414997499944 0.02362658619196265 -0.034216922884507006 28.882676229729498 0.025197681286166895 -0.04472761270900034 28.883802097968253 0.0433988312281431 -0.023618544794116715 9.691670812561837 2.294065943604343 14.919170090882899 -74.08801819754086 26.487843614239086 -12.173260718893221 -14.869307597071383 2.5483030592841085 -83.24849280753921 -23.451261634625958 -4.811204201332025 3.1329923478656303 -0.4690754311970163 0.10266448261128502 -8.088561907333638 -0.03255794424978015 -0.024662087004763567 44.526155576933455 -0.03828233931048937 -0.022597966233661785 44.542547787900936 12.494235453911694 0.04893808608539958 0.008940845384495072 -0.043126517878936746 0.041816845758995844 -0.00431359331130876 -0.0402968594333152 0.022591915341251635 0.02279174912438439 11.114650833089884 -0.03910723482123392 0.03174346097496627 0.030449204254527375 -0.017879962187407998 -0.03673403350601282 -0.03788008086915538 -0.04282272138274049 0.010839447497915412 4.77114213806297 -0.04210273540176722 0.0016958998504271808 0.02422808615083359 -0.009924644573346582 -0.013933979144209923 -0.004475871586026784 0.024218668154442038 -0.002008132497524302 -5.6466658454561625 0.0021806183670910707 0.03613125209492895 -6.69128258217708 0.002415169346569643 0.02203805319592504 -6.7670838261287445 0.009499811067147382 -0.04296797502005996 0.02812244101064494 0.011430250146011036 -0.006194411313132172 8.059010828507507 3.521290181453594 -19.217782087221384 -0.034516170338168714 10.428910996185074 0.02990107219802057 -5.630185111511437 -15.627890517168892 3.163355068214589 0.04383143835723766 0.00730605800413223 -0.02048722419726965 0.006259962842612401 4.669239254216815 -0.013772034403417106 12.425219874609892 -8.253048544690065 6.849408828386954 0.016402020784049585 46.37697338319047 0.03892231076089846 -4.331651435617558 -14.73911338723051 -3.8509864929874835 0.03733485301656036 0.02288949668537309 -0.03566763260597072 0.04551092917778547 -10.708671491588074 0.013774179857782618 
-0.04359258313201373 0.008652992764482106 -0.03869837316895164 0.0036669036171501274 0.032691444294287074 0.04436320298160086 4.198208968913543 2.358005173320112 -2.0102827251827815 -0.6850030668419704 3.678909842371504 0.3249047854454499 -0.6510025934701558 -1.4923304645234794 0.9238615674485752 -0.5007078384567862 -0.23346767779986316 -0.26210479718553714 -0.0799037436613452 14.1727623628159 -1.1394580231247353 0.3159247064524058 0.4655609409473825 -2.6601691808223933 0.7573426528806062 -15.257718655781389 -0.22231956361846184 -8.929092997241565 3.1244825192886636 -17.140688058758997 77.88735867052765 20.098877436131165 8.555095060147393 -3.2161704068425867 0.12125417947714237 86.34913267592734 21.11189548783937 -0.5545708662917339 -5.161296068721587 4.539931444999422 -0.1470565722597852 -1.5754634052321221 -0.0059576699165792765 -0.030962029472907666 -56.22637194979123 0.0019189420812710804 0.042567864653357254 -56.23213031850876 -38.81218170615387 0.018193163868340998 0.047064123691825166 0.03408206570469708 0.040768478560881276 0.04744390040662642 -0.0027901218737686143 -0.021879792876375908 -0.020127116862614577 -36.673662844729805 0.038153995162899385 0.027859452926477686 -0.013774723506667991 0.020435315930149325 0.04134539592635969 0.011982620291309259 -0.01684216691382663 0.03921193513659145 -19.718297649861498 -0.00042818277848356633 -0.016836334819411772 0.002366056652057592 0.013327246097539434 -0.027176130158383813 -0.03501881713311035 0.005353036804240781 -0.042082344884765026 24.05557844005998 -0.03248177466483232 0.001047464200234691 28.898485647702348 -0.005736295625146597 0.04857441909659389 28.857827642933614 0.0207675232140692 0.019262927170490832 10.127359342285015 2.348233642450448 15.065045529416915 -73.90529917465332 26.831250646049362 -12.826485266920285 -14.942622116087092 2.832489308042669 -83.9370317219931 -23.622453103636264 -5.84335655915323 3.8898031144818894 -0.45758296790610203 0.0300113195122462 -8.077550327167836 0.006427322286008822 0.01273903961579505 44.6054657358405 -0.023261335119247984 0.03214922678941231 44.53435391631391 12.444833889655435 -0.011369901936089425 0.04718699781987301 -0.021728912533588423 0.0034332895712853913 -0.03846494278943694 0.04071656861093874 0.014882520572018507 0.018310465678048397 11.148265910506005 -0.037996202812432794 -0.01875695128120145 -0.0023270942505378505 0.047356294949747586 0.045842550451824504 -0.0014967322489240888 -0.02749596339740643 0.025303393937710514 4.7988841897195735 0.011864711953658092 0.0031779224437020067 -0.012499545200979543 -0.04733577540597397 -0.03411298799978436 0.03317615178815966 0.028977067649882803 -0.0007176096077058797 -5.6089259120821335 -0.027551770915225607 -0.04492781057553638 -6.729086698765863 -0.023672347464083403 0.027721253093268002 -6.750596566851737 -0.008800937273055563 -0.014513526561791031 -0.03785176354401448 -0.018081428983641193 0.0267330221609319 8.073013265702771 3.522234825320175 -19.269044099891186 0.028635647721959704 10.441488302778314 0.04140525445735603 -5.638158636739196 -15.68000172990915 3.1745642905394735 -0.016459320441969724 0.037139941769382824 0.021937617347097135 0.027765433453334157 4.71361987515266 -0.008771866841843385 12.428095421895577 -8.220858538523782 6.84380979861838 0.04756940670985165 46.36240996107485 0.04515283222517137 -4.277607502150099 -14.772946958696275 -3.830134914758081 -0.005014351647091587 -0.01586283937020616 0.010447810075173848 -0.008474546309272099 -10.727708221662546 -0.042815138727552195 
